<?xml version="1.0" standalone="no"?>
<!DOCTYPE svg PUBLIC "-//W3C//DTD SVG 20010904//EN"
 "http://www.w3.org/TR/2001/REC-SVG-20010904/DTD/svg10.dtd">
<svg version="1.0" xmlns="http://www.w3.org/2000/svg"
 width="1074.000000pt" height="1074.000000pt" viewBox="0 0 1074.000000 1074.000000"
 preserveAspectRatio="xMidYMid meet">
<metadata>
Created by potrace 1.14, written by Peter Selinger 2001-2017
</metadata>
<g transform="translate(0.000000,1074.000000) scale(0.100000,-0.100000)"
fill="#000000" stroke="none">
<path d="M5138 9525 c-1 -1 -43 -6 -93 -9 -49 -4 -106 -9 -125 -11 -19 -3 -57
-7 -85 -10 -27 -3 -75 -10 -105 -15 -30 -5 -68 -11 -85 -14 -33 -5 -40 -7
-175 -36 -52 -11 -102 -22 -110 -25 -19 -6 -89 -24 -113 -30 -10 -2 -27 -7
-37 -10 -10 -3 -27 -8 -37 -10 -10 -2 -65 -21 -123 -41 -58 -20 -111 -36 -117
-37 -7 0 -13 -4 -13 -9 0 -4 -7 -8 -16 -8 -9 0 -30 -6 -47 -14 -71 -33 -157
-64 -157 -58 0 4 -4 2 -8 -4 -4 -5 -25 -18 -47 -28 -63 -29 -229 -112 -292
-147 -105 -58 -309 -184 -323 -199 -3 -4 -23 -17 -45 -30 -21 -13 -46 -30 -55
-37 -8 -8 -64 -52 -125 -99 -159 -123 -203 -162 -365 -324 -176 -175 -240
-246 -335 -370 -57 -75 -75 -97 -93 -115 -6 -8 -12 -18 -12 -24 0 -6 -3 -11
-8 -11 -4 0 -12 -9 -17 -19 -6 -11 -44 -70 -86 -133 -92 -139 -149 -232 -149
-246 0 -6 -4 -12 -8 -14 -4 -1 -39 -66 -76 -143 -38 -77 -73 -147 -78 -155 -4
-8 -11 -22 -14 -30 -3 -8 -12 -27 -20 -42 -8 -16 -13 -28 -10 -28 3 0 -11 -34
-29 -75 -19 -41 -32 -75 -29 -75 2 0 -1 -10 -8 -22 -7 -13 -13 -25 -13 -28 0
-3 -20 -66 -44 -140 -40 -125 -46 -142 -50 -162 -1 -4 -8 -26 -16 -48 -8 -22
-12 -40 -10 -40 3 0 0 -12 -6 -27 -6 -16 -12 -41 -15 -57 -2 -15 -6 -35 -8
-45 -3 -9 -8 -31 -11 -50 -3 -19 -7 -37 -9 -40 -2 -3 -7 -31 -11 -61 -4 -30
-9 -58 -11 -62 -4 -7 -17 -109 -18 -140 0 -10 -3 -18 -6 -18 -3 0 -6 -15 -6
-32 -1 -18 -4 -62 -7 -98 -26 -252 -26 -517 -1 -808 3 -35 8 -73 10 -85 3 -12
7 -42 9 -67 3 -39 16 -122 31 -200 3 -14 8 -38 11 -55 6 -32 7 -37 16 -75 3
-14 16 -65 28 -115 27 -116 25 -108 31 -125 3 -8 25 -76 49 -150 61 -193 136
-377 231 -567 105 -211 97 -195 192 -346 45 -71 86 -136 91 -145 17 -28 69
-97 78 -100 4 -2 7 -8 7 -13 0 -12 79 -113 91 -117 5 -2 9 -8 9 -13 0 -8 14
-27 45 -63 6 -6 35 -40 65 -76 68 -81 323 -337 410 -411 107 -92 182 -153 226
-184 15 -11 40 -30 55 -42 15 -13 31 -23 37 -23 6 0 12 -4 14 -9 9 -25 518
-332 518 -313 0 4 4 3 8 -3 6 -8 95 -56 112 -60 3 0 28 -11 55 -24 90 -41 109
-50 185 -79 97 -38 115 -44 115 -41 0 1 10 -3 23 -10 13 -7 33 -14 45 -16 12
-3 31 -9 42 -14 25 -12 192 -62 222 -66 11 -2 36 -8 55 -14 28 -9 64 -17 90
-21 4 -1 22 -6 40 -11 18 -5 47 -12 63 -14 17 -3 50 -10 75 -15 43 -9 89 -16
155 -25 124 -17 133 -18 260 -31 70 -7 617 -8 690 -1 28 2 73 7 100 11 28 3
68 8 90 11 57 7 95 13 135 20 19 4 48 8 63 10 16 2 40 6 55 10 15 3 38 8 52
11 41 8 84 18 128 28 9 2 53 14 97 25 44 12 91 24 104 27 13 3 32 9 43 15 10
5 18 6 18 2 0 -4 5 -2 12 5 7 7 18 12 25 12 20 0 297 102 378 140 39 17 75 33
80 34 21 5 150 71 156 79 3 5 9 8 13 7 9 -3 245 127 267 146 9 8 19 11 22 7 4
-3 7 -1 7 5 0 7 6 12 14 12 8 0 16 4 18 8 2 4 28 23 58 41 30 19 57 37 60 40
3 4 21 17 40 29 20 11 47 30 59 42 13 11 27 20 30 20 3 0 20 13 38 28 17 15
63 52 102 82 39 30 71 58 71 62 0 5 4 8 10 8 15 0 71 52 250 231 171 171 189
190 255 274 22 28 43 52 46 55 26 21 249 333 249 348 0 6 4 12 8 14 8 3 122
183 122 193 0 3 11 23 24 44 14 21 22 42 19 45 -4 3 -2 6 3 6 5 0 18 20 29 45
11 25 23 45 28 45 4 0 7 5 7 11 0 5 18 49 41 97 22 48 44 96 49 107 40 91 50
116 50 129 0 9 4 16 8 16 5 0 9 6 10 13 1 10 50 152 53 152 0 0 2 7 4 15 1 8
12 43 24 76 12 34 24 70 26 80 3 11 18 71 35 134 16 63 32 126 35 139 2 14 9
47 15 75 18 88 20 100 26 136 2 19 8 49 11 65 3 17 7 41 8 55 1 14 5 49 9 79
4 29 10 81 12 115 3 33 7 79 9 101 6 53 7 464 1 540 -2 33 -7 87 -10 120 -4
33 -9 83 -12 110 -6 53 -11 94 -19 135 -5 25 -13 74 -20 120 -12 71 -17 98
-27 135 -5 22 -12 49 -14 60 -10 51 -14 67 -33 136 -25 87 -61 208 -69 229 -3
8 -6 17 -7 20 -12 46 -101 273 -131 337 -14 29 -25 55 -24 58 0 6 -153 308
-161 315 -3 3 -27 43 -54 90 -26 47 -68 113 -92 147 -24 34 -43 66 -43 72 0 5
-4 11 -8 13 -5 2 -23 26 -42 53 -18 28 -36 52 -39 55 -3 3 -31 39 -63 80 -31
41 -66 86 -78 100 -12 14 -45 52 -73 85 -55 64 -316 327 -382 385 -22 20 -76
64 -120 100 -44 36 -81 68 -83 72 -2 5 -8 8 -13 8 -6 0 -20 9 -32 21 -12 12
-96 70 -187 130 -91 60 -170 113 -176 118 -6 5 -20 12 -32 15 -12 4 -28 13
-35 19 -21 20 -295 160 -387 199 -67 29 -145 61 -165 68 -11 4 -31 12 -45 18
-127 57 -480 157 -690 196 -14 3 -36 7 -50 10 -13 3 -40 8 -60 11 -19 3 -66
10 -105 15 -38 6 -91 12 -117 13 -27 1 -48 4 -48 7 0 3 -24 6 -53 8 -87 4
-585 11 -589 7z"/>
</g>
</svg>
