<?xml version="1.0" encoding="UTF-8" standalone="no"?>
<!-- Created with Inkscape (http://www.inkscape.org/) -->

<svg
   width="142mm"
   height="110mm"
   viewBox="0 0 142 110"
   version="1.1"
   id="SVGRoot"
   sodipodi:docname="logo.svg"
   inkscape:version="1.2.1 (9c6d41e410, 2022-07-14)"
   xmlns:inkscape="http://www.inkscape.org/namespaces/inkscape"
   xmlns:sodipodi="http://sodipodi.sourceforge.net/DTD/sodipodi-0.dtd"
   xmlns="http://www.w3.org/2000/svg"
   xmlns:svg="http://www.w3.org/2000/svg">
  <sodipodi:namedview
     id="namedview648"
     pagecolor="#505050"
     bordercolor="#eeeeee"
     borderopacity="1"
     inkscape:showpageshadow="0"
     inkscape:pageopacity="0"
     inkscape:pagecheckerboard="0"
     inkscape:deskcolor="#505050"
     inkscape:document-units="mm"
     showgrid="false"
     inkscape:zoom="0.75455247"
     inkscape:cx="141.80591"
     inkscape:cy="166.9864"
     inkscape:window-width="1920"
     inkscape:window-height="1027"
     inkscape:window-x="-8"
     inkscape:window-y="-8"
     inkscape:window-maximized="1"
     inkscape:current-layer="layer1" />
  <defs
     id="defs643" />
  <g
     inkscape:label="Layer 1"
     inkscape:groupmode="layer"
     id="layer1">
    <ellipse
       style="fill:#ffffff;stroke-width:0.264583"
       id="path247"
       cx="71"
       cy="55"
       rx="55.051949"
       ry="54.999996" />
    <g
       id="g1744"
       transform="matrix(0.57988844,0,0,0.57988844,-117.0398,-97.972909)">
      <path
         style="fill:#1a1a1a"
         d="m 277.5,250 -10,45 c 0,0 -15,15 -10,20 5,5 130,5 135,0 5,-5 -10,-20 -10,-20 l -10,-45 z"
         id="path1208"
         sodipodi:nodetypes="ccscccc" />
      <path
         style="fill:#1a1a1a"
         d="m 270,255 -15,-10 15,-15 h 110 l 15,15 -15,10 V 245 H 270 Z"
         id="path1360" />
      <path
         style="fill:#1a1a1a;stroke-width:0.605406"
         d="m 269.8455,226.42661 c 0,0 -6.31116,-0.42335 -12.01098,-5.16126 0,0 -7.39599,-7.75542 -2.78101,-10.34956 4.61499,-2.59414 4.61499,-2.59414 8.61865,-0.87371 1.69617,3.01749 1.08484,7.33206 1.08484,7.33206 -0.61133,4.31455 5.0885,9.05247 5.0885,9.05247 z"
         id="path1362"
         sodipodi:nodetypes="cccccc" />
      <path
         style="fill:#ffffff"
         d="m 295,250 h 60 c 0,0 0,25 -30,25 -30,0 -30,-25 -30,-25 z"
         id="path1391"
         sodipodi:nodetypes="cccc" />
      <rect
         style="fill:#ffffff"
         id="rect1501"
         width="5"
         height="5"
         x="293.5"
         y="277"
         ry="2.5" />
      <rect
         style="fill:#ffffff"
         id="rect1503"
         width="5"
         height="5"
         x="303.5"
         y="277"
         ry="2.5" />
      <rect
         style="fill:#ffffff"
         id="rect1505"
         width="5"
         height="5"
         x="313.5"
         y="277"
         ry="2.5" />
      <rect
         style="fill:#ffffff"
         id="rect1507"
         width="5"
         height="5"
         x="323.5"
         y="277"
         ry="2.5" />
      <rect
         style="fill:#ffffff"
         id="rect1509"
         width="5"
         height="5"
         x="333.5"
         y="277"
         ry="2.5" />
      <rect
         style="fill:#ffffff"
         id="rect1511"
         width="5"
         height="5"
         x="343.5"
         y="277"
         ry="2.5" />
      <rect
         style="fill:#ffffff"
         id="rect1513"
         width="5"
         height="5"
         x="353.5"
         y="277"
         ry="2.5" />
      <rect
         style="fill:#ffffff"
         id="rect1515"
         width="5"
         height="5"
         x="363.5"
         y="277"
         ry="2.5" />
      <rect
         style="fill:#ffffff"
         id="rect1517"
         width="5"
         height="5"
         x="293.5"
         y="284"
         ry="2.5" />
      <rect
         style="fill:#ffffff"
         id="rect1519"
         width="5"
         height="5"
         x="303.5"
         y="284"
         ry="2.5" />
      <rect
         style="fill:#ffffff"
         id="rect1521"
         width="5"
         height="5"
         x="313.5"
         y="284"
         ry="2.5" />
      <rect
         style="fill:#ffffff"
         id="rect1523"
         width="5"
         height="5"
         x="323.5"
         y="284"
         ry="2.5" />
      <rect
         style="fill:#ffffff"
         id="rect1525"
         width="5"
         height="5"
         x="333.5"
         y="284"
         ry="2.5" />
      <rect
         style="fill:#ffffff"
         id="rect1527"
         width="5"
         height="5"
         x="343.5"
         y="284"
         ry="2.5" />
      <rect
         style="fill:#ffffff"
         id="rect1529"
         width="5"
         height="5"
         x="353.5"
         y="284"
         ry="2.5" />
      <rect
         style="fill:#ffffff"
         id="rect1531"
         width="5"
         height="5"
         x="363.5"
         y="284"
         ry="2.5" />
      <rect
         style="fill:#ffffff"
         id="rect1542"
         width="5"
         height="5"
         x="293.5"
         y="291"
         ry="2.5" />
      <rect
         style="fill:#ffffff"
         id="rect1544"
         width="5"
         height="5"
         x="303.5"
         y="291"
         ry="2.5" />
      <rect
         style="fill:#ffffff"
         id="rect1546"
         width="5"
         height="5"
         x="313.5"
         y="291"
         ry="2.5" />
      <rect
         style="fill:#ffffff"
         id="rect1548"
         width="5"
         height="5"
         x="323.5"
         y="291"
         ry="2.5" />
      <rect
         style="fill:#ffffff"
         id="rect1550"
         width="5"
         height="5"
         x="333.5"
         y="291"
         ry="2.5" />
      <rect
         style="fill:#ffffff"
         id="rect1552"
         width="5"
         height="5"
         x="343.5"
         y="291"
         ry="2.5" />
      <rect
         style="fill:#ffffff"
         id="rect1554"
         width="5"
         height="5"
         x="353.5"
         y="291"
         ry="2.5" />
      <rect
         style="fill:#ffffff"
         id="rect1556"
         width="5"
         height="5"
         x="363.5"
         y="291"
         ry="2.5" />
      <ellipse
         style="fill:#ffffff"
         id="path1642"
         cx="325"
         cy="302.5"
         rx="27"
         ry="2.5" />
      <rect
         style="fill:#ffffff"
         id="rect1646"
         width="6"
         height="30"
         x="282"
         y="275"
         ry="3" />
    </g>
  </g>
</svg>
