<?xml version="1.0" encoding="UTF-8" standalone="no"?>
<svg
   xmlns:dc="http://purl.org/dc/elements/1.1/"
   xmlns:cc="http://creativecommons.org/ns#"
   xmlns:rdf="http://www.w3.org/1999/02/22-rdf-syntax-ns#"
   xmlns:svg="http://www.w3.org/2000/svg"
   xmlns="http://www.w3.org/2000/svg"
   xmlns:sodipodi="http://sodipodi.sourceforge.net/DTD/sodipodi-0.dtd"
   xmlns:inkscape="http://www.inkscape.org/namespaces/inkscape"
   width="800px"
   height="950px"
   viewBox="0 0 800 950"
   version="1.1"
   id="SVGRoot"
   sodipodi:docname="poster.svg"
   inkscape:version="1.0.1 (3bc2e813f5, 2020-09-07)">
  <defs
     id="defs476">
    <rect
       x="120"
       y="160"
       width="357.14285"
       height="228.57143"
       id="rect36" />
    <rect
       x="120"
       y="160"
       width="357.14285"
       height="228.57143"
       id="rect146" />
    <rect
       x="200"
       y="840"
       width="734.28571"
       height="177.14285"
       id="rect84" />
    <rect
       x="200"
       y="840"
       width="734.28571"
       height="177.14285"
       id="rect149" />
  </defs>
  <sodipodi:namedview
     id="base"
     pagecolor="#ffffff"
     bordercolor="#666666"
     borderopacity="1.0"
     inkscape:pageopacity="0.0"
     inkscape:pageshadow="2"
     inkscape:zoom="0.35"
     inkscape:cx="400"
     inkscape:cy="560"
     inkscape:document-units="px"
     inkscape:current-layer="layer1"
     inkscape:document-rotation="0"
     showgrid="false"
     inkscape:window-width="1267"
     inkscape:window-height="728"
     inkscape:window-x="26"
     inkscape:window-y="0"
     inkscape:window-maximized="0" />
  <metadata
     id="metadata479">
    <rdf:RDF>
      <cc:Work
         rdf:about="">
        <dc:format>image/svg+xml</dc:format>
        <dc:type
           rdf:resource="http://purl.org/dc/dcmitype/StillImage" />
        <dc:title></dc:title>
      </cc:Work>
    </rdf:RDF>
  </metadata>
  <g
     inkscape:label="Layer 1"
     inkscape:groupmode="layer"
     id="layer1">
    <text
       xml:space="preserve"
       style="font-style:normal;font-weight:normal;font-size:39.9999px;line-height:1.25;font-family:sans-serif;fill:#000000;fill-opacity:1;stroke:none;stroke-width:0.999999"
       x="38.815578"
       y="359.2326"
       id="text46"><tspan
         sodipodi:role="line"
         id="tspan44"
         x="38.815578"
         y="359.2326"
         style="font-style:normal;font-variant:normal;font-weight:normal;font-stretch:normal;font-family:Aharoni;-inkscape-font-specification:Aharoni;stroke-width:0.999999">Yea' It is me!. Read what's special</tspan><tspan
         sodipodi:role="line"
         x="38.815578"
         y="411.33118"
         style="font-style:normal;font-variant:normal;font-weight:normal;font-stretch:normal;font-family:Aharoni;-inkscape-font-specification:Aharoni;stroke-width:0.999999"
         id="tspan48">about me... Lmao.</tspan></text>
    <path
       sodipodi:type="star"
       style="fill:#2b0000;stroke-width:0.264583"
       id="path58"
       sodipodi:sides="3"
       sodipodi:cx="184.54407"
       sodipodi:cy="107.39537"
       sodipodi:r1="17.877525"
       sodipodi:r2="38.232204"
       sodipodi:arg1="0.052939204"
       sodipodi:arg2="1.1001368"
       inkscape:flatsided="true"
       inkscape:rounded="0"
       inkscape:randomized="0"
       d="m 202.39655,108.34135 -27.59797,14.04173 1.63849,-30.9214 z"
       inkscape:transform-center-x="-2.6712403"
       inkscape:transform-center-y="1.9384257"
       transform="matrix(3.7417051,0,0,3.9203089,32.935923,-61.364764)" />
    <text
       xml:space="preserve"
       style="font-style:normal;font-weight:normal;font-size:39.9999px;line-height:1.25;font-family:sans-serif;fill:#000000;fill-opacity:1;stroke:none;stroke-width:0.999999"
       x="58.815578"
       y="722.08978"
       id="text62"><tspan
         sodipodi:role="line"
         id="tspan60"
         x="58.815578"
         y="722.08978"
         style="font-style:normal;font-variant:normal;font-weight:normal;font-stretch:normal;font-family:Aharoni;-inkscape-font-specification:Aharoni;stroke-width:0.999999">Like you can't see that </tspan><tspan
         sodipodi:role="line"
         x="58.815578"
         y="774.18835"
         style="font-style:normal;font-variant:normal;font-weight:normal;font-stretch:normal;font-family:Aharoni;-inkscape-font-specification:Aharoni;stroke-width:0.999999"
         id="tspan64">there is something... </tspan><tspan
         sodipodi:role="line"
         x="58.815578"
         y="826.28693"
         style="font-style:normal;font-variant:normal;font-weight:normal;font-stretch:normal;font-family:Aharoni;-inkscape-font-specification:Aharoni;stroke-width:0.999999"
         id="tspan66">If that arrow is pointing in the </tspan><tspan
         sodipodi:role="line"
         x="58.815578"
         y="878.38544"
         style="font-style:normal;font-variant:normal;font-weight:normal;font-stretch:normal;font-family:Aharoni;-inkscape-font-specification:Aharoni;stroke-width:0.999999"
         id="tspan68">wrong Direction, dont tell me</tspan><tspan
         sodipodi:role="line"
         x="58.815578"
         y="930.48395"
         style="font-style:normal;font-variant:normal;font-weight:normal;font-stretch:normal;font-family:Aharoni;-inkscape-font-specification:Aharoni;stroke-width:0.999999"
         id="tspan70">Nerd!</tspan></text>
    <path
       style="fill:#00ff00;stroke-width:0.999999"
       id="path72"
       d="m 584.87584,706.1034 c 5.3954,-9.97255 9.7325,-20.38432 13.8085,-30.96185 8.9044,-25.15779 17.7546,-50.33666 27.6257,-75.13592 9.0194,-22.5883 17.2129,-45.5063 26.8253,-67.8523 5.1214,-13.44356 10.0638,-26.97982 14.5371,-40.65718 0,0 -37.0163,17.47378 -37.0163,17.47378 v 0 c -3.9657,13.4301 -8.5069,26.6925 -13.5046,39.77352 -8.928,22.46615 -17.5643,45.04603 -26.1822,67.6323 -9.7587,25.13991 -18.102,50.8142 -28.7728,75.59974 -4.6861,10.74833 -9.6637,21.33675 -15.9621,31.25435 0,0 38.6414,-17.12644 38.6414,-17.12644 z" />
    <path
       style="fill:#666666;stroke-width:0.999999"
       id="path80"
       d="m 586.19584,541.61915 c 7.9991,-5.99134 16.4937,-11.25422 24.5559,-17.15928 7.7772,-5.21824 15.6781,-10.24898 23.4306,-15.50377 11.8061,-7.04085 25.4087,-15.13153 -27.6167,15.94817 -1.2455,0.73001 2.5448,-1.36415 3.8203,-2.04034 3.3683,-1.7856 6.7441,-3.53636 10.1707,-5.20728 2.8216,-1.11005 11.5893,-7.61462 14.3756,-5.26583 0.7476,0.63016 1.1456,1.58483 1.7184,2.37725 4.2665,7.72074 5.4049,16.46075 6.1524,25.10577 -0.011,9.75031 1.3733,19.27586 3.2006,28.81773 1.3368,8.61366 1.9194,17.10625 5.4236,25.16799 2.4229,6.56439 6.4896,12.26959 10.4868,17.93865 1.7027,2.90487 0.7988,1.46503 2.7173,4.31607 0,0 36.3023,-21.37629 36.3023,-21.37629 v 0 c -1.9223,-2.64487 -0.9595,-1.2147 -2.8518,-4.31486 -3.944,-5.33941 -8.0489,-10.66367 -10.2576,-17.01758 -3.3059,-7.72033 -3.7727,-16.02535 -5.2523,-24.22489 -1.7966,-9.41862 -2.9226,-18.89487 -2.947,-28.50013 -0.9248,-9.33898 -2.6595,-18.57914 -6.9502,-27.03099 -1.4949,-2.35038 -3.1224,-5.68086 -5.9264,-6.89718 -3.7669,-1.63401 -10.4665,3.1816 -13.5882,4.84595 -19.6698,9.88177 -39.2865,20.02458 -57.564,32.46312 -7.8039,5.15471 -15.6678,10.22294 -23.3219,15.59996 -8.3794,5.85328 -16.8171,11.61975 -25.3092,17.30767 0,0 39.2308,-15.34991 39.2308,-15.34991 z" />
    <g
       inkscape:label="Layer 1"
       id="layer1-3"
       transform="matrix(0.31096305,0,0,0.29267683,262.48824,-0.48237429)">
      <text
         xml:space="preserve"
         id="text34"
         style="font-style:normal;font-weight:normal;font-size:192px;line-height:1.25;font-family:sans-serif;white-space:pre;shape-inside:url(#rect36);fill:#552200;fill-opacity:1;stroke:none;"
         transform="translate(591.42857,-60.000001)"><tspan
           x="120"
           y="335.16742"><tspan
             style="font-style:normal;font-variant:normal;font-weight:normal;font-stretch:normal;font-family:Andalus;-inkscape-font-specification:Andalus;fill:#552200">The</tspan></tspan></text>
      <text
         xml:space="preserve"
         style="font-style:normal;font-weight:normal;font-size:192px;line-height:1.25;font-family:sans-serif;fill:#008000;fill-opacity:1;stroke:none"
         x="17.142859"
         y="405.71429"
         id="text42"><tspan
           sodipodi:role="line"
           id="tspan40"
           x="17.142859"
           y="405.71429"
           style="font-style:normal;font-variant:normal;font-weight:normal;font-stretch:normal;font-size:192px;font-family:Algerian;-inkscape-font-specification:Algerian;fill:#008000">Incorrect</tspan></text>
      <text
         xml:space="preserve"
         style="font-style:normal;font-weight:normal;font-size:96px;line-height:1.65;font-family:sans-serif;fill:#000080;fill-opacity:1;stroke:none"
         x="22.857143"
         y="480"
         id="text46-3"><tspan
           sodipodi:role="line"
           id="tspan44-3"
           x="22.857143"
           y="480"
           style="font-style:normal;font-variant:normal;font-weight:normal;font-stretch:normal;font-size:96px;font-family:'Bauhaus 93';-inkscape-font-specification:'Bauhaus 93, ';fill:#000080">Company</tspan></text>
      <text
         xml:space="preserve"
         style="font-style:normal;font-weight:normal;font-size:40px;line-height:1.25;font-family:sans-serif;fill:#000000;fill-opacity:1;stroke:none"
         x="320"
         y="600"
         id="text74"><tspan
           id="tspan72"
           x="320"
           y="600"
           sodipodi:role="line" /></text>
      <text
         xml:space="preserve"
         id="text82"
         style="font-style:normal;font-weight:normal;font-size:32px;line-height:1.25;font-family:sans-serif;white-space:pre;shape-inside:url(#rect84);fill:#000000;fill-opacity:1;stroke:none;"
         transform="translate(257.14286,100)"><tspan
           x="200"
           y="869.19457"><tspan
             style="font-style:normal;font-variant:normal;font-weight:normal;font-stretch:normal;font-size:32px;font-family:Consolas;-inkscape-font-specification:Consolas;fill:#000000">A Game Devloping and math major </tspan></tspan><tspan
           x="200"
           y="910.62353"><tspan
             style="font-style:normal;font-variant:normal;font-weight:normal;font-stretch:normal;font-size:32px;font-family:Consolas;-inkscape-font-specification:Consolas;fill:#000000">Dumbarse...</tspan></tspan></text>
      <rect
         style="fill:#ff0000"
         id="rect90"
         width="280"
         height="280"
         x="200"
         y="560" />
      <rect
         style="fill:#000080"
         id="rect92"
         width="480"
         height="200"
         x="360"
         y="680" />
      <circle
         style="fill:#d35f5f"
         id="path94"
         cx="742.85712"
         cy="634.28571"
         r="120" />
      <path
         sodipodi:type="spiral"
         style="fill:#00ffff;fill-rule:evenodd;stroke:#000000"
         id="path106"
         sodipodi:cx="320"
         sodipodi:cy="720"
         sodipodi:expansion="2"
         sodipodi:revolution="10"
         sodipodi:radius="160"
         sodipodi:argument="-18.849556"
         sodipodi:t0="0"
         d="m 320,720 c 0.0444,0 0.01,0.0875 0,0.1 -0.1123,0.14299 -0.32704,0.0146 -0.4,-0.1 -0.21985,-0.34534 0.0757,-0.76236 0.4,-0.9 0.68488,-0.29067 1.39545,0.25739 1.6,0.9 0.36017,1.1315 -0.53021,2.22758 -1.6,2.5 -1.68608,0.42936 -3.25921,-0.89405 -3.6,-2.5 -0.49849,-2.34907 1.3489,-4.49054 3.6,-4.9 3.12067,-0.56762 5.9217,1.89474 6.4,4.9 0.63678,4.00102 -2.53159,7.55273 -6.4,8.1 -4.99017,0.70597 -9.38368,-3.25946 -10,-8.1 -0.77517,-6.08818 4.07836,-11.41458 10,-12.1 7.29507,-0.8444 13.64542,4.98828 14.4,12.1 0.91364,8.61085 -5.98923,16.07624 -14.4,16.9 -10.03553,0.9829 -18.70702,-7.08123 -19.6,-16.9 -1.05216,-11.56914 8.26426,-21.53779 19.6,-22.5 13.21166,-1.12144 24.56854,9.53834 25.6,22.5 1.19073,14.96312 -10.90346,27.79928 -25.6,28.9 -16.8235,1.26002 -31.23001,-12.35962 -32.4,-28.9 -1.32932,-18.79282 13.90683,-34.86072 32.4,-36.1 20.87107,-1.39863 38.69143,15.54509 40,36.1 1.46794,23.05826 -17.27439,42.72214 -40,44.1 -25.35438,1.53725 -46.95283,-19.09475 -48.4,-44.1 -1.60657,-27.75945 21.00615,-51.38352 48.4,-52.9 30.27346,-1.67589 56.01421,23.0086 57.6,52.9 1.74521,32.89641 -25.10211,60.84489 -57.6,62.5 -35.6283,1.81454 -65.87557,-27.28666 -67.6,-62.5 -1.88386,-38.46913 29.56227,-71.10625 67.6,-72.9 41.41891,-1.95319 76.53693,31.92892 78.4,72.9 2.02253,44.47763 -34.38663,82.1676 -78.4,84.1 -47.64529,2.09186 -87.99827,-36.93539 -90,-84.1 -2.1612,-50.9219 39.5752,-94.02894 90,-96.1 54.30745,-2.23053 100.2596,42.30606 102.4,96.1 2.29987,57.80195 -45.12798,106.69027 -102.39999,108.9 C 258.59461,831.26921 206.67907,780.85905 204.4,720.00001 201.96145,654.88222 255.44497,599.8484 319.99999,597.5 388.93911,594.99211 447.18226,651.64004 449.6,719.99999 452.17723,792.86938 392.27384,854.41292 320.00001,856.9 243.0914,859.54657 178.15642,796.29666 175.6,720.00001 172.88408,638.94323 239.57157,570.52576 319.99999,567.9 405.31388,565.11474 477.30489,635.33085 480,719.99999" />
      <path
         sodipodi:type="spiral"
         style="fill:#000000;fill-rule:evenodd;stroke:#000000"
         id="path108"
         sodipodi:cx="760"
         sodipodi:cy="80"
         sodipodi:expansion="2"
         sodipodi:revolution="10"
         sodipodi:radius="40"
         sodipodi:argument="-62.831852"
         sodipodi:t0="0"
         d="m 760,80 c 0.0111,0 0.002,0.02188 0,0.025 -0.0281,0.03575 -0.0818,0.0036 -0.1,-0.025 -0.055,-0.08634 0.0189,-0.19059 0.1,-0.225 0.17122,-0.07267 0.34886,0.06435 0.4,0.225 0.09,0.282876 -0.13255,0.556895 -0.4,0.625 -0.42152,0.107339 -0.8148,-0.223514 -0.9,-0.625001 -0.12462,-0.587267 0.33723,-1.122636 0.9,-1.224999 0.78017,-0.141905 1.48043,0.473686 1.6,1.225002 0.15919,1.000254 -0.6329,1.888182 -1.6,2.024998 -1.24755,0.17649 -2.34592,-0.814868 -2.5,-2.025003 -0.19379,-1.522045 1.01959,-2.853642 2.5,-3.024997 1.82377,-0.211097 3.41136,1.247073 3.6,3.025004 0.22841,2.152712 -1.49731,4.019058 -3.6,4.224996 -2.50889,0.245721 -4.67676,-1.770312 -4.9,-4.225005 -0.26304,-2.892285 2.06607,-5.384446 4.90001,-5.624995 3.30291,-0.280357 6.14213,2.384591 6.39999,5.625007 0.29768,3.74078 -2.72587,6.949817 -6.40001,7.224993 -4.20587,0.315 -7.8075,-3.089914 -8.09999,-7.225009 -0.33232,-4.698205 3.47672,-8.715177 8.10001,-9.024991 5.21777,-0.34965 9.67285,3.886283 9.99999,9.025011 C 770.36698,85.764576 765.68139,90.68054 759.99999,91.025 753.66139,91.409305 748.26178,86.2513 747.9,79.999987 747.49837,73.060123 753.15155,67.154111 760.00001,66.775 767.56838,66.356037 774.00356,72.527167 774.4,80.000016 774.83629,88.224119 768.12446,95.211233 759.99998,95.625 751.09291,96.078624 743.5311,88.803315 743.1,79.999981 742.62905,70.382696 750.49059,62.223426 760.00002,61.775 770.35475,61.286713 779.13424,69.757253 779.6,80.000022 780.10562,91.119431 771.00332,100.54191 759.99998,101.025 748.08865,101.54795 738.00042,91.791127 737.5,79.999975 736.95972,67.269498 747.39383,56.492751 760.00003,55.975 773.57689,55.417383 785.06492,66.551545 785.6,80.000028 786.17495,94.450518 774.31797,106.67258 759.99997,107.225 744.64862,107.81728 731.66975,95.214731 731.1,79.999968 730.49038,63.720522 743.86128,49.962082 760.00003,49.375 777.23481,48.748048 791.79558,62.910046 792.4,80.000036 793.04429,98.217384 778.06842,113.60325 759.99996,114.225 740.77281,114.88662 724.53908,99.074124 723.9,79.99996 723.22104,59.735765 739.89294,42.631418 760.00004,41.975 781.32852,41.27871 799.32625,58.832758 800,80.000045" />
    </g>
  </g>
</svg>
