<?xml version="1.0" encoding="UTF-8" standalone="no"?>
<svg
   xmlns:dc="http://purl.org/dc/elements/1.1/"
   xmlns:cc="http://creativecommons.org/ns#"
   xmlns:rdf="http://www.w3.org/1999/02/22-rdf-syntax-ns#"
   xmlns:svg="http://www.w3.org/2000/svg"
   xmlns="http://www.w3.org/2000/svg"
   xmlns:sodipodi="http://sodipodi.sourceforge.net/DTD/sodipodi-0.dtd"
   xmlns:inkscape="http://www.inkscape.org/namespaces/inkscape"
   width="1024.0px"
   height="1024.0px"
   viewBox="0 0 1024.0 1024.0"
   version="1.1"
   id="SVGRoot"
   sodipodi:docname="Typeface.svg"
   inkscape:version="1.0.1 (3bc2e813f5, 2020-09-07)">
  <defs
     id="defs110">
    <rect
       x="120"
       y="160"
       width="357.14285"
       height="228.57143"
       id="rect36" />
    <rect
       x="120"
       y="160"
       width="357.14285"
       height="228.57143"
       id="rect135" />
  </defs>
  <sodipodi:namedview
     id="base"
     pagecolor="#ffffff"
     bordercolor="#666666"
     borderopacity="1.0"
     inkscape:pageopacity="0.0"
     inkscape:pageshadow="2"
     inkscape:zoom="0.35"
     inkscape:cx="400"
     inkscape:cy="331.42857"
     inkscape:document-units="px"
     inkscape:current-layer="layer1"
     inkscape:document-rotation="0"
     showgrid="true"
     inkscape:window-width="1366"
     inkscape:window-height="705"
     inkscape:window-x="-8"
     inkscape:window-y="-8"
     inkscape:window-maximized="1">
    <inkscape:grid
       type="xygrid"
       id="grid119" />
  </sodipodi:namedview>
  <metadata
     id="metadata113">
    <rdf:RDF>
      <cc:Work
         rdf:about="">
        <dc:format>image/svg+xml</dc:format>
        <dc:type
           rdf:resource="http://purl.org/dc/dcmitype/StillImage" />
        <dc:title></dc:title>
      </cc:Work>
    </rdf:RDF>
  </metadata>
  <g
     inkscape:label="Layer 1"
     inkscape:groupmode="layer"
     id="layer1">
    <text
       xml:space="preserve"
       id="text34"
       style="font-style:normal;font-weight:normal;font-size:192px;line-height:1.25;font-family:sans-serif;white-space:pre;shape-inside:url(#rect36);fill:#552200;fill-opacity:1;stroke:none;"
       transform="translate(591.42902,100.00001)"><tspan
         x="120"
         y="335.16742"><tspan
           style="font-style:normal;font-variant:normal;font-weight:normal;font-stretch:normal;font-family:Andalus;-inkscape-font-specification:Andalus;fill:#552200">The</tspan></tspan></text>
    <text
       xml:space="preserve"
       style="font-style:normal;font-weight:normal;font-size:192px;line-height:1.25;font-family:sans-serif;fill:#008000;fill-opacity:1;stroke:none;stroke-width:0.999999"
       x="17.142792"
       y="565.71448"
       id="text42"><tspan
         sodipodi:role="line"
         id="tspan40"
         x="17.142792"
         y="565.71448"
         style="font-style:normal;font-variant:normal;font-weight:normal;font-stretch:normal;font-size:192px;font-family:Algerian;-inkscape-font-specification:Algerian;fill:#008000;stroke-width:0.999999">Incorrect</tspan></text>
    <text
       xml:space="preserve"
       style="font-style:normal;font-weight:normal;font-size:96px;line-height:1.65;font-family:sans-serif;fill:#000080;fill-opacity:1;stroke:none;stroke-width:0.999999"
       x="22.857086"
       y="640.00018"
       id="text46"><tspan
         sodipodi:role="line"
         id="tspan44"
         x="22.857086"
         y="640.00018"
         style="font-style:normal;font-variant:normal;font-weight:normal;font-stretch:normal;font-size:96px;font-family:'Bauhaus 93';-inkscape-font-specification:'Bauhaus 93, ';fill:#000080;stroke-width:0.999999">Company</tspan></text>
    <path
       sodipodi:type="spiral"
       style="fill:#000000;fill-rule:evenodd;stroke:#000000"
       id="path108"
       sodipodi:cx="760"
       sodipodi:cy="240"
       sodipodi:expansion="2"
       sodipodi:revolution="10"
       sodipodi:radius="40"
       sodipodi:argument="-62.831852"
       sodipodi:t0="0"
       d="m 760,240 c 0.0111,0 0.002,0.0219 0,0.025 -0.0281,0.0358 -0.0818,0.004 -0.1,-0.025 -0.055,-0.0863 0.0189,-0.19059 0.1,-0.225 0.17122,-0.0727 0.34886,0.0643 0.4,0.225 0.09,0.28288 -0.13255,0.5569 -0.4,0.625 -0.42152,0.10734 -0.8148,-0.22351 -0.9,-0.625 -0.12462,-0.58727 0.33723,-1.12264 0.9,-1.225 0.78017,-0.1419 1.48043,0.47369 1.6,1.225 0.15919,1.00026 -0.6329,1.88818 -1.6,2.025 -1.24755,0.17649 -2.34592,-0.81487 -2.5,-2.025 -0.19379,-1.52205 1.01959,-2.85365 2.5,-3.025 1.82377,-0.2111 3.41136,1.24707 3.6,3.025 0.22841,2.15272 -1.49731,4.01906 -3.6,4.225 -2.50889,0.24572 -4.67676,-1.77031 -4.9,-4.22501 -0.26304,-2.89228 2.06607,-5.38444 4.90001,-5.62499 3.30291,-0.28036 6.14213,2.38459 6.39999,5.62501 0.29768,3.74078 -2.72587,6.94981 -6.40001,7.22499 -4.20587,0.315 -7.8075,-3.08991 -8.09999,-7.22501 -0.33232,-4.6982 3.47672,-8.71518 8.10001,-9.02499 5.21777,-0.34965 9.67285,3.88628 9.99999,9.02501 0.36698,5.76457 -4.31861,10.68053 -10.00001,11.02499 -6.3386,0.3843 -11.73821,-4.7737 -12.09999,-11.02501 -0.40163,-6.93987 5.25155,-12.84588 12.10001,-13.22499 7.56837,-0.41896 14.00355,5.75217 14.39999,13.22502 0.43629,8.2241 -6.27554,15.21121 -14.40002,15.62498 -8.90707,0.45362 -16.46888,-6.82168 -16.89998,-15.62502 -0.47095,-9.61728 7.39059,-17.77655 16.90002,-18.22498 10.35473,-0.48829 19.13422,7.98225 19.59998,18.22502 0.50562,11.11941 -8.59668,20.54189 -19.60002,21.02498 -11.91133,0.52295 -21.99956,-9.23387 -22.49998,-21.02503 -0.54028,-12.73047 9.89383,-23.50722 22.50003,-24.02497 13.57686,-0.55762 25.06489,10.57655 25.59997,24.02503 0.57495,14.45049 -11.28203,26.67255 -25.60003,27.22497 -15.35135,0.59228 -28.33022,-12.01027 -28.89997,-27.22503 -0.60962,-16.27945 12.76128,-30.03789 28.90003,-30.62497 17.23478,-0.62695 31.79555,13.53505 32.39997,30.62504 0.64429,18.21734 -14.33158,33.60321 -32.40004,34.22496 -19.22715,0.66162 -35.46088,-15.15088 -36.09996,-34.22504 -0.67896,-20.26419 15.99294,-37.36854 36.10004,-38.02496 21.32848,-0.69629 39.32621,16.85776 39.99996,38.02504" />
  </g>
</svg>
